<svg xmlns="http://www.w3.org/2000/svg" xmlns:xlink="http://www.w3.org/1999/xlink" width="1635" zoomAndPan="magnify" viewBox="0 0 1226.25 721.499983" height="962" preserveAspectRatio="xMidYMid meet" version="1.0"><defs><clipPath id="88f7a3f7c9"><path d="M 434.054688 194.152344 L 766.75 194.152344 L 766.75 526.847656 L 434.054688 526.847656 Z M 434.054688 194.152344 " clip-rule="nonzero"/></clipPath><clipPath id="0e1ddba92c"><path d="M 600.402344 194.152344 C 508.53125 194.152344 434.054688 268.628906 434.054688 360.5 C 434.054688 452.371094 508.53125 526.847656 600.402344 526.847656 C 692.273438 526.847656 766.75 452.371094 766.75 360.5 C 766.75 268.628906 692.273438 194.152344 600.402344 194.152344 Z M 600.402344 194.152344 " clip-rule="nonzero"/></clipPath><clipPath id="10746fe148"><path d="M 0.0546875 0.152344 L 332.75 0.152344 L 332.75 332.847656 L 0.0546875 332.847656 Z M 0.0546875 0.152344 " clip-rule="nonzero"/></clipPath><clipPath id="06e94c162a"><path d="M 166.402344 0.152344 C 74.53125 0.152344 0.0546875 74.628906 0.0546875 166.5 C 0.0546875 258.371094 74.53125 332.847656 166.402344 332.847656 C 258.273438 332.847656 332.75 258.371094 332.75 166.5 C 332.75 74.628906 258.273438 0.152344 166.402344 0.152344 Z M 166.402344 0.152344 " clip-rule="nonzero"/></clipPath><clipPath id="a5ad8a25ad"><rect x="0" width="333" y="0" height="333"/></clipPath><clipPath id="fcca5f7f5f"><path d="M 490 258 L 710 258 L 710 498.59375 L 490 498.59375 Z M 490 258 " clip-rule="nonzero"/></clipPath></defs><g clip-path="url(#88f7a3f7c9)"><g clip-path="url(#0e1ddba92c)"><g transform="matrix(1, 0, 0, 1, 434, 194)"><g clip-path="url(#a5ad8a25ad)"><g clip-path="url(#10746fe148)"><g clip-path="url(#06e94c162a)"><path fill="#ffbd59" d="M 0.0546875 0.152344 L 332.75 0.152344 L 332.75 332.847656 L 0.0546875 332.847656 Z M 0.0546875 0.152344 " fill-opacity="1" fill-rule="nonzero"/></g></g></g></g></g></g><g clip-path="url(#fcca5f7f5f)"><path fill="#000000" d="M 603.980469 498.597656 C 617.972656 440.695312 485.761719 432.8125 490.3125 325.183594 C 490.410156 320.535156 495.648438 317.890625 500.296875 320.042969 C 523.636719 329.441406 491.535156 377.015625 559.648438 404.230469 C 564.003906 405.992188 567.820312 402.664062 567.035156 398.503906 C 566.351562 394.785156 548.003906 366.003906 566.597656 359.542969 C 568.210938 359.101562 569.386719 359.152344 570.21875 360.667969 C 579.953125 383.820312 643.90625 413.824219 603.980469 498.597656 Z M 518.398438 321.070312 C 515.511719 324.300781 513.800781 328.316406 511.695312 332.085938 C 512.480469 335.363281 512.917969 338.984375 513.359375 342.804688 C 514.191406 349.507812 515.121094 357.144531 518.058594 364.925781 C 521.582031 359.640625 533.863281 334.433594 527.992188 323.324219 C 526.570312 319.800781 520.75 318.429688 518.398438 321.070312 Z M 518.9375 366.980469 C 520.453125 370.554688 522.460938 374.128906 525.101562 377.703125 C 529.019531 371.535156 546.730469 347.257812 533.617188 340.453125 C 532.050781 339.621094 531.171875 339.378906 530.632812 339.574219 C 529.847656 343.046875 528.773438 346.425781 527.648438 349.460938 C 525.691406 354.84375 523.539062 359.25 522.414062 361.402344 C 520.554688 364.976562 519.574219 366.394531 518.9375 366.980469 Z M 708.886719 302.472656 C 697.242188 244.523438 628.296875 249.613281 594.878906 286.273438 C 569.191406 250.199219 511.890625 261.359375 498.875 302.472656 C 514.875 282.308594 540.175781 269.53125 565.472656 280.644531 C 581.375 287.59375 586.070312 301.003906 591.0625 316.03125 C 604.515625 298.164062 618.757812 282.257812 641.410156 276.679688 C 663.234375 271.246094 684.863281 278.785156 691.90625 301.25 C 701.496094 331.742188 676.394531 362.722656 661.277344 386.804688 C 642.339844 416.90625 624.285156 448.183594 616.945312 483.421875 C 631.234375 449.699219 652.175781 420.285156 673.507812 390.769531 C 691.46875 365.808594 715.101562 335.414062 708.886719 302.472656 Z M 708.886719 302.472656 " fill-opacity="1" fill-rule="nonzero"/></g></svg>