<svg xmlns="http://www.w3.org/2000/svg" xmlns:xlink="http://www.w3.org/1999/xlink" width="1635" zoomAndPan="magnify" viewBox="0 0 1226.25 721.499983" height="962" preserveAspectRatio="xMidYMid meet" version="1.0"><defs><clipPath id="49fbc73ed0"><path d="M 434.054688 194.152344 L 766.75 194.152344 L 766.75 526.847656 L 434.054688 526.847656 Z M 434.054688 194.152344 " clip-rule="nonzero"/></clipPath><clipPath id="89b18a959b"><path d="M 600.402344 194.152344 C 508.53125 194.152344 434.054688 268.628906 434.054688 360.5 C 434.054688 452.371094 508.53125 526.847656 600.402344 526.847656 C 692.273438 526.847656 766.75 452.371094 766.75 360.5 C 766.75 268.628906 692.273438 194.152344 600.402344 194.152344 Z M 600.402344 194.152344 " clip-rule="nonzero"/></clipPath><clipPath id="a73ea84d7d"><path d="M 0.0546875 0.152344 L 332.75 0.152344 L 332.75 332.847656 L 0.0546875 332.847656 Z M 0.0546875 0.152344 " clip-rule="nonzero"/></clipPath><clipPath id="fda6dadffd"><path d="M 166.402344 0.152344 C 74.53125 0.152344 0.0546875 74.628906 0.0546875 166.5 C 0.0546875 258.371094 74.53125 332.847656 166.402344 332.847656 C 258.273438 332.847656 332.75 258.371094 332.75 166.5 C 332.75 74.628906 258.273438 0.152344 166.402344 0.152344 Z M 166.402344 0.152344 " clip-rule="nonzero"/></clipPath><clipPath id="d2e4682f4f"><rect x="0" width="333" y="0" height="333"/></clipPath><clipPath id="e1d55319f0"><path d="M 456.203125 209.277344 L 751.5 209.277344 L 751.5 504.574219 L 456.203125 504.574219 Z M 456.203125 209.277344 " clip-rule="nonzero"/></clipPath><clipPath id="1e71a0b9bb"><path d="M 577 266 L 726 266 L 726 504.574219 L 577 504.574219 Z M 577 266 " clip-rule="nonzero"/></clipPath></defs><g clip-path="url(#49fbc73ed0)"><g clip-path="url(#89b18a959b)"><g transform="matrix(1, 0, 0, 1, 434, 194)"><g clip-path="url(#d2e4682f4f)"><g clip-path="url(#a73ea84d7d)"><g clip-path="url(#fda6dadffd)"><path fill="#ffbd59" d="M 0.0546875 0.152344 L 332.75 0.152344 L 332.75 332.847656 L 0.0546875 332.847656 Z M 0.0546875 0.152344 " fill-opacity="1" fill-rule="nonzero"/></g></g></g></g></g></g><g clip-path="url(#e1d55319f0)"><path fill="#ffbd59" d="M 751.792969 357.074219 C 751.792969 359.492188 751.734375 361.910156 751.617188 364.324219 C 751.496094 366.742188 751.320312 369.152344 751.082031 371.558594 C 750.84375 373.964844 750.550781 376.367188 750.195312 378.757812 C 749.839844 381.152344 749.425781 383.535156 748.953125 385.90625 C 748.480469 388.277344 747.953125 390.636719 747.363281 392.984375 C 746.777344 395.332031 746.132812 397.660156 745.429688 399.976562 C 744.726562 402.289062 743.96875 404.585938 743.152344 406.863281 C 742.339844 409.140625 741.46875 411.398438 740.542969 413.632812 C 739.617188 415.867188 738.636719 418.078125 737.605469 420.261719 C 736.570312 422.449219 735.480469 424.609375 734.34375 426.742188 C 733.203125 428.875 732.011719 430.980469 730.765625 433.054688 C 729.523438 435.128906 728.230469 437.171875 726.886719 439.183594 C 725.542969 441.195312 724.148438 443.171875 722.707031 445.113281 C 721.269531 447.058594 719.78125 448.964844 718.246094 450.832031 C 716.710938 452.703125 715.132812 454.535156 713.507812 456.324219 C 711.882812 458.117188 710.214844 459.871094 708.503906 461.578125 C 706.796875 463.289062 705.042969 464.957031 703.25 466.582031 C 701.460938 468.207031 699.628906 469.785156 697.757812 471.320312 C 695.890625 472.855469 693.984375 474.34375 692.039062 475.78125 C 690.097656 477.222656 688.121094 478.617188 686.109375 479.960938 C 684.097656 481.304688 682.054688 482.597656 679.980469 483.839844 C 677.90625 485.085938 675.800781 486.277344 673.667969 487.417969 C 671.535156 488.558594 669.375 489.644531 667.1875 490.679688 C 665.003906 491.710938 662.792969 492.691406 660.558594 493.617188 C 658.324219 494.542969 656.066406 495.414062 653.789062 496.230469 C 651.511719 497.042969 649.214844 497.800781 646.902344 498.503906 C 644.585938 499.207031 642.253906 499.851562 639.910156 500.4375 C 637.5625 501.027344 635.203125 501.554688 632.832031 502.027344 C 630.460938 502.5 628.078125 502.914062 625.683594 503.269531 C 623.292969 503.625 620.890625 503.917969 618.484375 504.15625 C 616.078125 504.394531 613.667969 504.570312 611.25 504.691406 C 608.835938 504.808594 606.417969 504.867188 604 504.867188 C 601.578125 504.867188 599.160156 504.808594 596.746094 504.691406 C 594.332031 504.570312 591.917969 504.394531 589.511719 504.15625 C 587.105469 503.917969 584.703125 503.625 582.3125 503.269531 C 579.917969 502.914062 577.535156 502.5 575.164062 502.027344 C 572.792969 501.554688 570.433594 501.027344 568.085938 500.4375 C 565.742188 499.851562 563.410156 499.207031 561.09375 498.503906 C 558.78125 497.800781 556.484375 497.042969 554.207031 496.230469 C 551.929688 495.414062 549.675781 494.542969 547.4375 493.617188 C 545.203125 492.691406 542.992188 491.710938 540.808594 490.679688 C 538.621094 489.644531 536.460938 488.558594 534.328125 487.417969 C 532.195312 486.277344 530.089844 485.085938 528.015625 483.839844 C 525.941406 482.597656 523.898438 481.304688 521.886719 479.960938 C 519.875 478.617188 517.898438 477.222656 515.957031 475.78125 C 514.015625 474.34375 512.109375 472.855469 510.238281 471.320312 C 508.367188 469.785156 506.535156 468.207031 504.746094 466.582031 C 502.953125 464.957031 501.203125 463.289062 499.492188 461.578125 C 497.78125 459.871094 496.113281 458.117188 494.488281 456.324219 C 492.863281 454.535156 491.285156 452.703125 489.75 450.832031 C 488.214844 448.964844 486.730469 447.058594 485.289062 445.113281 C 483.847656 443.171875 482.453125 441.195312 481.109375 439.183594 C 479.765625 437.171875 478.472656 435.128906 477.230469 433.054688 C 475.984375 430.980469 474.792969 428.875 473.652344 426.742188 C 472.515625 424.609375 471.425781 422.449219 470.394531 420.261719 C 469.359375 418.078125 468.378906 415.867188 467.453125 413.632812 C 466.527344 411.398438 465.65625 409.140625 464.84375 406.863281 C 464.027344 404.585938 463.269531 402.289062 462.566406 399.976562 C 461.863281 397.660156 461.21875 395.332031 460.632812 392.984375 C 460.042969 390.636719 459.515625 388.277344 459.042969 385.90625 C 458.570312 383.535156 458.15625 381.152344 457.800781 378.757812 C 457.449219 376.367188 457.152344 373.964844 456.914062 371.558594 C 456.675781 369.152344 456.5 366.742188 456.378906 364.324219 C 456.261719 361.910156 456.203125 359.492188 456.203125 357.074219 C 456.203125 354.652344 456.261719 352.238281 456.378906 349.820312 C 456.5 347.40625 456.675781 344.992188 456.914062 342.585938 C 457.152344 340.179688 457.449219 337.777344 457.800781 335.386719 C 458.15625 332.992188 458.570312 330.613281 459.042969 328.238281 C 459.515625 325.867188 460.042969 323.507812 460.632812 321.160156 C 461.21875 318.816406 461.863281 316.484375 462.566406 314.171875 C 463.269531 311.855469 464.027344 309.558594 464.84375 307.28125 C 465.65625 305.003906 466.527344 302.75 467.453125 300.515625 C 468.378906 298.277344 469.359375 296.070312 470.394531 293.882812 C 471.425781 291.695312 472.515625 289.535156 473.652344 287.402344 C 474.792969 285.269531 475.984375 283.164062 477.230469 281.089844 C 478.472656 279.015625 479.765625 276.972656 481.109375 274.960938 C 482.453125 272.949219 483.847656 270.972656 485.289062 269.03125 C 486.730469 267.089844 488.214844 265.183594 489.75 263.3125 C 491.285156 261.441406 492.863281 259.613281 494.488281 257.820312 C 496.113281 256.027344 497.78125 254.277344 499.492188 252.566406 C 501.203125 250.855469 502.953125 249.1875 504.746094 247.5625 C 506.535156 245.9375 508.367188 244.359375 510.238281 242.824219 C 512.109375 241.289062 514.015625 239.804688 515.957031 238.363281 C 517.898438 236.921875 519.875 235.527344 521.886719 234.183594 C 523.898438 232.839844 525.941406 231.546875 528.015625 230.304688 C 530.089844 229.0625 532.195312 227.867188 534.328125 226.730469 C 536.460938 225.589844 538.621094 224.5 540.808594 223.46875 C 542.992188 222.433594 545.203125 221.453125 547.4375 220.527344 C 549.675781 219.601562 551.929688 218.730469 554.207031 217.917969 C 556.484375 217.101562 558.78125 216.34375 561.09375 215.640625 C 563.410156 214.9375 565.742188 214.292969 568.085938 213.707031 C 570.433594 213.117188 572.792969 212.589844 575.164062 212.117188 C 577.535156 211.644531 579.917969 211.230469 582.3125 210.875 C 584.703125 210.523438 587.105469 210.226562 589.511719 209.988281 C 591.917969 209.75 594.332031 209.574219 596.746094 209.457031 C 599.160156 209.335938 601.578125 209.277344 604 209.277344 C 606.417969 209.277344 608.835938 209.335938 611.25 209.457031 C 613.667969 209.574219 616.078125 209.75 618.484375 209.988281 C 620.890625 210.226562 623.292969 210.523438 625.683594 210.875 C 628.078125 211.230469 630.460938 211.644531 632.832031 212.117188 C 635.203125 212.589844 637.5625 213.117188 639.910156 213.707031 C 642.253906 214.292969 644.585938 214.9375 646.902344 215.640625 C 649.214844 216.34375 651.511719 217.101562 653.789062 217.917969 C 656.066406 218.730469 658.324219 219.601562 660.558594 220.527344 C 662.792969 221.453125 665.003906 222.433594 667.1875 223.46875 C 669.375 224.5 671.535156 225.589844 673.667969 226.730469 C 675.800781 227.867188 677.90625 229.0625 679.980469 230.304688 C 682.054688 231.546875 684.097656 232.839844 686.109375 234.183594 C 688.121094 235.527344 690.097656 236.921875 692.039062 238.363281 C 693.984375 239.804688 695.890625 241.289062 697.757812 242.824219 C 699.628906 244.359375 701.460938 245.9375 703.25 247.5625 C 705.042969 249.1875 706.796875 250.855469 708.503906 252.566406 C 710.214844 254.277344 711.882812 256.027344 713.507812 257.820312 C 715.132812 259.613281 716.710938 261.441406 718.246094 263.3125 C 719.78125 265.183594 721.269531 267.089844 722.707031 269.03125 C 724.148438 270.972656 725.542969 272.949219 726.886719 274.960938 C 728.230469 276.972656 729.523438 279.015625 730.765625 281.089844 C 732.011719 283.164062 733.203125 285.269531 734.34375 287.402344 C 735.480469 289.535156 736.570312 291.695312 737.605469 293.882812 C 738.636719 296.070312 739.617188 298.277344 740.542969 300.515625 C 741.46875 302.75 742.339844 305.003906 743.152344 307.28125 C 743.96875 309.558594 744.726562 311.855469 745.429688 314.171875 C 746.132812 316.484375 746.777344 318.816406 747.363281 321.160156 C 747.953125 323.507812 748.480469 325.867188 748.953125 328.238281 C 749.425781 330.613281 749.839844 332.992188 750.195312 335.386719 C 750.550781 337.777344 750.84375 340.179688 751.082031 342.585938 C 751.320312 344.992188 751.496094 347.40625 751.617188 349.820312 C 751.734375 352.238281 751.792969 354.652344 751.792969 357.074219 Z M 751.792969 357.074219 " fill-opacity="1" fill-rule="nonzero"/></g><path fill="#000000" d="M 572.761719 386.972656 C 569.058594 383.3125 564.640625 379.921875 559.375 377.019531 C 526.171875 358.632812 517.160156 356.359375 504.933594 327.710938 C 492.75 299.0625 479.453125 301.113281 479.453125 301.113281 C 479.453125 301.113281 523.988281 284.914062 553.214844 302.496094 C 565.976562 310.21875 574.367188 322.398438 579.5 334.851562 C 577.445312 344.042969 575.886719 353.324219 574.769531 362.5625 C 562.765625 348.058594 542.371094 325.703125 526.085938 319.8125 C 526.085938 319.8125 557.230469 342.078125 574.277344 366.800781 C 573.566406 373.582031 573.074219 380.320312 572.761719 386.972656 Z M 572.761719 386.972656 " fill-opacity="1" fill-rule="evenodd"/><g clip-path="url(#1e71a0b9bb)"><path fill="#000000" d="M 587.800781 504.421875 C 587.800781 504.421875 576.777344 445.832031 623.054688 408.300781 C 669.285156 370.773438 682.535156 364.792969 693.515625 317.222656 C 704.492188 269.609375 725.554688 269.117188 725.554688 269.117188 C 725.554688 269.117188 652.328125 256.3125 612.03125 291.5625 C 571.78125 326.816406 573.117188 392.28125 583.203125 412.898438 C 583.203125 412.898438 623.054688 331.414062 658.753906 310.796875 C 658.753906 310.796875 600.160156 370.773438 589.136719 419.726562 C 578.160156 468.722656 583.871094 486.574219 587.800781 504.421875 Z M 587.800781 504.421875 " fill-opacity="1" fill-rule="evenodd"/></g><path fill="#000000" d="M 575.394531 445.382812 C 575.394531 445.382812 574.101562 428.738281 558.882812 422 C 543.667969 415.21875 539.648438 414.59375 533.222656 402.542969 C 526.796875 390.496094 521.085938 391.925781 521.085938 391.925781 C 521.085938 391.925781 539.917969 383.132812 553.351562 389.691406 C 566.78125 396.253906 571.15625 414.011719 569.949219 420.304688 C 569.949219 420.304688 553.261719 401.25 542.148438 398.304688 C 542.148438 398.304688 562.320312 410.21875 568.835938 422.625 C 575.394531 435.03125 575.125 440.253906 575.394531 445.382812 Z M 575.394531 445.382812 " fill-opacity="1" fill-rule="evenodd"/></svg>