<svg xmlns="http://www.w3.org/2000/svg" xmlns:xlink="http://www.w3.org/1999/xlink" width="1920" zoomAndPan="magnify" viewBox="0 0 1440 809.999993" height="1080" preserveAspectRatio="xMidYMid meet" version="1.0"><defs><clipPath id="be679daac4"><path d="M 403.246094 213.84375 L 1035.867188 213.84375 L 1035.867188 595.316406 L 403.246094 595.316406 Z M 403.246094 213.84375 " clip-rule="nonzero"/></clipPath><clipPath id="41b10d7d98"><path d="M 0.246094 0.84375 L 632.867188 0.84375 L 632.867188 382.316406 L 0.246094 382.316406 Z M 0.246094 0.84375 " clip-rule="nonzero"/></clipPath><clipPath id="05a22369ad"><rect x="0" width="633" y="0" height="383"/></clipPath><clipPath id="a088f1ff8b"><path d="M 579.800781 255.875 L 881.265625 255.875 L 881.265625 538.414062 L 579.800781 538.414062 Z M 579.800781 255.875 " clip-rule="nonzero"/></clipPath></defs><g clip-path="url(#be679daac4)"><g transform="matrix(1, 0, 0, 1, 403, 213)"><g clip-path="url(#05a22369ad)"><g clip-path="url(#41b10d7d98)"><path fill="none" d="M 0.246094 0.84375 L 633.550781 0.84375 L 633.550781 382.316406 L 0.246094 382.316406 Z M 0.246094 0.84375 " fill-opacity="1" fill-rule="nonzero"/></g></g></g></g><g clip-path="url(#a088f1ff8b)"><path fill="#603b28" d="M 636.398438 524.777344 C 622.96875 517.273438 610.703125 507.765625 601.066406 499.191406 C 591.949219 491.070312 582.734375 481.238281 582.011719 469.042969 C 581.292969 456.917969 589.117188 446.226562 594.394531 435.289062 C 603.09375 417.261719 606.949219 393.933594 597.578125 375.441406 C 589.585938 359.664062 582.230469 343.164062 580.265625 325.578125 C 578.304688 307.992188 582.445312 288.964844 594.832031 276.34375 C 607.214844 263.722656 628.742188 259.65625 643.078125 270 C 652.707031 276.949219 657.5625 288.550781 664.324219 298.316406 C 667.929688 303.53125 673.058594 308.726562 679.382812 308.53125 C 683.660156 308.402344 687.421875 305.804688 690.84375 303.238281 C 708.421875 290.007812 724.683594 274.53125 744.621094 265.238281 C 766.054688 255.246094 791.046875 253.144531 813.839844 259.421875 C 836.636719 265.695312 857.046875 280.292969 870.375 299.851562 C 880.203125 314.273438 885.921875 334.226562 876.355469 348.824219 C 866.5 363.855469 843.140625 369.074219 839.519531 386.691406 C 837.234375 397.816406 844.285156 408.414062 849.992188 418.226562 C 857.703125 431.496094 863.492188 445.882812 867.109375 460.800781 C 870.164062 473.398438 871.664062 486.695312 868.5625 499.28125 C 865.46875 511.867188 857.164062 523.667969 845.128906 528.441406 C 827.503906 535.4375 808.019531 526.238281 791.179688 517.511719 C 776.644531 509.976562 758.945312 501.589844 742.230469 506.378906 C 726.972656 510.753906 718.628906 526.023438 704.859375 532.953125 C 683.128906 543.886719 658.222656 536.976562 636.398438 524.777344 " fill-opacity="1" fill-rule="nonzero"/></g></svg>